<?xml version="1.0" encoding="utf-8" standalone="no"?>
<!DOCTYPE svg PUBLIC "-//W3C//DTD SVG 1.1//EN"
  "http://www.w3.org/Graphics/SVG/1.1/DTD/svg11.dtd">
<svg xmlns:xlink="http://www.w3.org/1999/xlink" width="460.8pt" height="345.6pt" viewBox="0 0 460.8 345.6" xmlns="http://www.w3.org/2000/svg" version="1.1">
 <metadata>
  <rdf:RDF xmlns:dc="http://purl.org/dc/elements/1.1/" xmlns:cc="http://creativecommons.org/ns#" xmlns:rdf="http://www.w3.org/1999/02/22-rdf-syntax-ns#">
   <cc:Work>
    <dc:type rdf:resource="http://purl.org/dc/dcmitype/StillImage"/>
    <dc:date>2023-07-14T20:07:38.351182</dc:date>
    <dc:format>image/svg+xml</dc:format>
    <dc:creator>
     <cc:Agent>
      <dc:title>Matplotlib v3.5.1, https://matplotlib.org/</dc:title>
     </cc:Agent>
    </dc:creator>
   </cc:Work>
  </rdf:RDF>
 </metadata>
 <defs>
  <style type="text/css">*{stroke-linejoin: round; stroke-linecap: butt}</style>
 </defs>
 <g id="figure_1">
  <g id="patch_1">
   <path d="M 0 345.6 
L 460.8 345.6 
L 460.8 0 
L 0 0 
z
" style="fill: #ffffff"/>
  </g>
  <g id="axes_1">
   <g id="patch_2">
    <path d="M 57.6 307.584 
L 414.72 307.584 
L 414.72 41.472 
L 57.6 41.472 
z
" style="fill: #ffffff"/>
   </g>
   <g id="PolyCollection_1">
    <path d="M 73.832727 307.584 
L 73.832727 307.584 
L 77.60778 307.584 
L 81.382833 307.584 
L 85.157886 307.584 
L 88.932939 307.584 
L 92.707992 307.584 
L 96.483044 307.584 
L 100.258097 307.584 
L 104.03315 307.584 
L 107.808203 307.584 
L 111.583256 307.584 
L 115.358309 307.584 
L 119.133362 307.584 
L 122.908414 307.584 
L 126.683467 307.584 
L 130.45852 307.584 
L 134.233573 307.584 
L 138.008626 307.584 
L 141.783679 307.584 
L 145.558732 307.584 
L 149.333784 307.584 
L 153.108837 307.584 
L 156.88389 307.584 
L 160.658943 307.584 
L 164.433996 307.584 
L 168.209049 307.584 
L 171.984101 307.584 
L 175.759154 307.584 
L 179.534207 307.584 
L 183.30926 307.584 
L 187.084313 307.584 
L 190.859366 307.584 
L 194.634419 307.584 
L 198.409471 307.584 
L 202.184524 307.584 
L 205.959577 307.584 
L 209.73463 307.584 
L 213.509683 307.584 
L 217.284736 307.584 
L 221.059789 307.584 
L 224.834841 307.584 
L 228.609894 307.584 
L 232.384947 307.584 
L 236.16 307.584 
L 239.935053 307.584 
L 243.710106 307.584 
L 247.485159 307.584 
L 251.260211 307.584 
L 255.035264 307.584 
L 258.810317 307.584 
L 262.58537 307.584 
L 266.360423 307.584 
L 270.135476 307.584 
L 273.910529 307.584 
L 277.685581 307.584 
L 281.460634 307.584 
L 285.235687 307.584 
L 289.01074 307.584 
L 292.785793 307.584 
L 296.560846 307.584 
L 300.335899 307.584 
L 304.110951 307.584 
L 307.886004 307.584 
L 311.661057 307.584 
L 315.43611 307.584 
L 319.211163 307.584 
L 322.986216 307.584 
L 326.761268 307.584 
L 330.536321 307.584 
L 334.311374 307.584 
L 338.086427 307.584 
L 341.86148 307.584 
L 345.636533 307.584 
L 349.411586 307.584 
L 353.186638 307.584 
L 356.961691 307.584 
L 360.736744 307.584 
L 364.511797 307.584 
L 368.28685 307.584 
L 372.061903 307.584 
L 375.836956 307.584 
L 379.612008 307.584 
L 383.387061 307.584 
L 387.162114 307.584 
L 390.937167 307.584 
L 394.71222 307.584 
L 398.487273 307.584 
L 398.487273 307.584 
L 398.487273 307.584 
L 394.71222 307.584 
L 390.937167 307.584 
L 387.162114 307.584 
L 383.387061 307.584 
L 379.612008 307.584 
L 375.836956 307.584 
L 372.061903 307.584 
L 368.28685 307.584 
L 364.511797 307.584 
L 360.736744 307.584 
L 356.961691 307.584 
L 353.186638 307.584 
L 349.411586 307.584 
L 345.636533 307.584 
L 341.86148 307.584 
L 338.086427 307.584 
L 334.311374 307.584 
L 330.536321 307.584 
L 326.761268 307.584 
L 322.986216 307.584 
L 319.211163 307.584 
L 315.43611 307.584 
L 311.661057 307.584 
L 307.886004 307.584 
L 304.110951 307.584 
L 300.335899 307.584 
L 296.560846 307.584 
L 292.785793 307.584 
L 289.01074 307.584 
L 285.235687 307.584 
L 281.460634 307.584 
L 277.685581 307.584 
L 273.910529 307.584 
L 270.135476 307.584 
L 266.360423 307.584 
L 262.58537 307.584 
L 258.810317 307.584 
L 255.035264 307.584 
L 251.260211 307.584 
L 247.485159 307.584 
L 243.710106 307.584 
L 239.935053 307.584 
L 236.16 307.584 
L 232.384947 307.584 
L 228.609894 307.584 
L 224.834841 307.584 
L 221.059789 307.584 
L 217.284736 307.584 
L 213.509683 307.584 
L 209.73463 307.584 
L 205.959577 307.584 
L 202.184524 307.584 
L 198.409471 307.584 
L 194.634419 307.584 
L 190.859366 307.584 
L 187.084313 307.584 
L 183.30926 307.584 
L 179.534207 307.584 
L 175.759154 307.584 
L 171.984101 307.584 
L 168.209049 307.584 
L 164.433996 307.584 
L 160.658943 307.584 
L 156.88389 307.584 
L 153.108837 307.584 
L 149.333784 307.584 
L 145.558732 307.584 
L 141.783679 307.584 
L 138.008626 307.584 
L 134.233573 307.584 
L 130.45852 307.584 
L 126.683467 307.584 
L 122.908414 307.584 
L 119.133362 307.584 
L 115.358309 304.112219 
L 111.583256 300.640438 
L 107.808203 297.168658 
L 104.03315 297.168658 
L 100.258097 297.168658 
L 96.483044 300.640438 
L 92.707992 304.112219 
L 88.932939 307.584 
L 85.157886 307.584 
L 81.382833 307.584 
L 77.60778 307.584 
L 73.832727 307.584 
z
" clip-path="url(#p4478ce1e31)" style="fill: #0000ff"/>
   </g>
   <g id="PolyCollection_2">
    <path d="M 73.832727 307.584 
L 73.832727 307.584 
L 77.60778 307.584 
L 81.382833 307.584 
L 85.157886 307.584 
L 88.932939 307.584 
L 92.707992 304.112219 
L 96.483044 300.640438 
L 100.258097 297.168658 
L 104.03315 297.168658 
L 107.808203 297.168658 
L 111.583256 300.640438 
L 115.358309 304.112219 
L 119.133362 307.584 
L 122.908414 307.584 
L 126.683467 307.584 
L 130.45852 307.584 
L 134.233573 307.584 
L 138.008626 307.584 
L 141.783679 307.584 
L 145.558732 307.584 
L 149.333784 307.584 
L 153.108837 307.584 
L 156.88389 307.584 
L 160.658943 307.584 
L 164.433996 307.584 
L 168.209049 307.584 
L 171.984101 307.584 
L 175.759154 307.584 
L 179.534207 307.584 
L 183.30926 307.584 
L 187.084313 307.584 
L 190.859366 307.584 
L 194.634419 307.584 
L 198.409471 307.584 
L 202.184524 307.584 
L 205.959577 307.584 
L 209.73463 307.584 
L 213.509683 307.584 
L 217.284736 307.584 
L 221.059789 307.584 
L 224.834841 307.584 
L 228.609894 307.584 
L 232.384947 307.584 
L 236.16 307.584 
L 239.935053 307.584 
L 243.710106 307.584 
L 247.485159 307.584 
L 251.260211 307.584 
L 255.035264 307.584 
L 258.810317 307.584 
L 262.58537 307.584 
L 266.360423 307.584 
L 270.135476 307.584 
L 273.910529 307.584 
L 277.685581 307.584 
L 281.460634 307.584 
L 285.235687 307.584 
L 289.01074 307.584 
L 292.785793 307.584 
L 296.560846 307.584 
L 300.335899 307.584 
L 304.110951 307.584 
L 307.886004 307.584 
L 311.661057 307.584 
L 315.43611 307.584 
L 319.211163 307.584 
L 322.986216 307.584 
L 326.761268 307.584 
L 330.536321 307.584 
L 334.311374 307.584 
L 338.086427 307.584 
L 341.86148 307.584 
L 345.636533 307.584 
L 349.411586 307.584 
L 353.186638 307.584 
L 356.961691 307.584 
L 360.736744 307.584 
L 364.511797 307.584 
L 368.28685 307.584 
L 372.061903 307.584 
L 375.836956 307.584 
L 379.612008 307.584 
L 383.387061 307.584 
L 387.162114 307.584 
L 390.937167 307.584 
L 394.71222 307.584 
L 398.487273 307.584 
L 398.487273 307.584 
L 398.487273 307.584 
L 394.71222 307.584 
L 390.937167 307.584 
L 387.162114 307.584 
L 383.387061 307.584 
L 379.612008 307.584 
L 375.836956 307.584 
L 372.061903 307.584 
L 368.28685 307.584 
L 364.511797 307.584 
L 360.736744 307.584 
L 356.961691 307.584 
L 353.186638 307.584 
L 349.411586 307.584 
L 345.636533 307.584 
L 341.86148 307.584 
L 338.086427 307.584 
L 334.311374 307.584 
L 330.536321 307.584 
L 326.761268 307.584 
L 322.986216 307.584 
L 319.211163 307.584 
L 315.43611 307.584 
L 311.661057 307.584 
L 307.886004 307.584 
L 304.110951 307.584 
L 300.335899 307.584 
L 296.560846 307.584 
L 292.785793 307.584 
L 289.01074 307.584 
L 285.235687 307.584 
L 281.460634 307.584 
L 277.685581 307.584 
L 273.910529 307.584 
L 270.135476 307.584 
L 266.360423 307.584 
L 262.58537 307.584 
L 258.810317 307.584 
L 255.035264 307.584 
L 251.260211 307.584 
L 247.485159 307.584 
L 243.710106 307.584 
L 239.935053 307.584 
L 236.16 307.584 
L 232.384947 307.584 
L 228.609894 307.584 
L 224.834841 307.584 
L 221.059789 307.584 
L 217.284736 307.584 
L 213.509683 307.584 
L 209.73463 307.584 
L 205.959577 307.584 
L 202.184524 307.584 
L 198.409471 307.584 
L 194.634419 307.584 
L 190.859366 307.584 
L 187.084313 307.584 
L 183.30926 307.584 
L 179.534207 307.584 
L 175.759154 307.584 
L 171.984101 307.584 
L 168.209049 307.584 
L 164.433996 307.584 
L 160.658943 307.584 
L 156.88389 307.584 
L 153.108837 307.584 
L 149.333784 307.584 
L 145.558732 307.584 
L 141.783679 307.584 
L 138.008626 307.584 
L 134.233573 307.584 
L 130.45852 307.584 
L 126.683467 307.584 
L 122.908414 307.584 
L 119.133362 307.584 
L 115.358309 304.112219 
L 111.583256 300.640438 
L 107.808203 297.168658 
L 104.03315 297.168658 
L 100.258097 297.168658 
L 96.483044 300.640438 
L 92.707992 304.112219 
L 88.932939 307.584 
L 85.157886 307.584 
L 81.382833 307.584 
L 77.60778 307.584 
L 73.832727 307.584 
z
" clip-path="url(#p4478ce1e31)" style="fill: #008000"/>
   </g>
   <g id="PolyCollection_3">
    <path d="M 73.832727 307.584 
L 73.832727 307.584 
L 77.60778 307.584 
L 81.382833 307.584 
L 85.157886 307.584 
L 88.932939 307.584 
L 92.707992 304.112219 
L 96.483044 300.640438 
L 100.258097 297.168658 
L 104.03315 297.168658 
L 107.808203 297.168658 
L 111.583256 300.640438 
L 115.358309 304.112219 
L 119.133362 307.584 
L 122.908414 307.584 
L 126.683467 307.584 
L 130.45852 307.584 
L 134.233573 307.584 
L 138.008626 307.584 
L 141.783679 307.584 
L 145.558732 307.584 
L 149.333784 307.584 
L 153.108837 307.584 
L 156.88389 307.584 
L 160.658943 307.584 
L 164.433996 307.584 
L 168.209049 307.584 
L 171.984101 307.584 
L 175.759154 307.584 
L 179.534207 307.584 
L 183.30926 307.584 
L 187.084313 307.584 
L 190.859366 307.584 
L 194.634419 307.584 
L 198.409471 307.584 
L 202.184524 307.584 
L 205.959577 307.584 
L 209.73463 307.584 
L 213.509683 307.584 
L 217.284736 307.584 
L 221.059789 307.584 
L 224.834841 307.584 
L 228.609894 307.584 
L 232.384947 307.584 
L 236.16 307.584 
L 239.935053 307.584 
L 243.710106 307.584 
L 247.485159 307.584 
L 251.260211 307.584 
L 255.035264 307.584 
L 258.810317 307.584 
L 262.58537 307.584 
L 266.360423 307.584 
L 270.135476 307.584 
L 273.910529 307.584 
L 277.685581 307.584 
L 281.460634 307.584 
L 285.235687 307.584 
L 289.01074 307.584 
L 292.785793 307.584 
L 296.560846 307.584 
L 300.335899 307.584 
L 304.110951 307.584 
L 307.886004 307.584 
L 311.661057 307.584 
L 315.43611 307.584 
L 319.211163 307.584 
L 322.986216 307.584 
L 326.761268 307.584 
L 330.536321 307.584 
L 334.311374 307.584 
L 338.086427 307.584 
L 341.86148 307.584 
L 345.636533 307.584 
L 349.411586 307.584 
L 353.186638 307.584 
L 356.961691 307.584 
L 360.736744 307.584 
L 364.511797 307.584 
L 368.28685 307.584 
L 372.061903 307.584 
L 375.836956 307.584 
L 379.612008 307.584 
L 383.387061 307.584 
L 387.162114 307.584 
L 390.937167 307.584 
L 394.71222 307.584 
L 398.487273 307.584 
L 398.487273 307.584 
L 398.487273 307.584 
L 394.71222 307.584 
L 390.937167 307.584 
L 387.162114 307.584 
L 383.387061 307.584 
L 379.612008 307.584 
L 375.836956 307.584 
L 372.061903 307.584 
L 368.28685 307.584 
L 364.511797 307.584 
L 360.736744 307.584 
L 356.961691 307.584 
L 353.186638 307.584 
L 349.411586 307.584 
L 345.636533 307.584 
L 341.86148 307.584 
L 338.086427 307.584 
L 334.311374 307.584 
L 330.536321 307.584 
L 326.761268 307.584 
L 322.986216 307.584 
L 319.211163 307.584 
L 315.43611 307.584 
L 311.661057 307.584 
L 307.886004 307.584 
L 304.110951 307.584 
L 300.335899 307.584 
L 296.560846 307.584 
L 292.785793 307.584 
L 289.01074 307.584 
L 285.235687 307.584 
L 281.460634 307.584 
L 277.685581 307.584 
L 273.910529 307.584 
L 270.135476 307.584 
L 266.360423 307.584 
L 262.58537 307.584 
L 258.810317 307.584 
L 255.035264 307.584 
L 251.260211 307.584 
L 247.485159 307.584 
L 243.710106 307.584 
L 239.935053 307.584 
L 236.16 307.584 
L 232.384947 307.584 
L 228.609894 307.584 
L 224.834841 307.584 
L 221.059789 307.584 
L 217.284736 307.584 
L 213.509683 307.584 
L 209.73463 307.584 
L 205.959577 307.584 
L 202.184524 307.584 
L 198.409471 307.584 
L 194.634419 307.584 
L 190.859366 307.584 
L 187.084313 307.584 
L 183.30926 307.584 
L 179.534207 307.584 
L 175.759154 307.584 
L 171.984101 307.584 
L 168.209049 307.584 
L 164.433996 307.584 
L 160.658943 307.584 
L 156.88389 307.584 
L 153.108837 307.584 
L 149.333784 307.584 
L 145.558732 307.584 
L 141.783679 307.584 
L 138.008626 307.584 
L 134.233573 307.584 
L 130.45852 307.584 
L 126.683467 307.584 
L 122.908414 307.584 
L 119.133362 307.584 
L 115.358309 304.112219 
L 111.583256 300.640438 
L 107.808203 297.168658 
L 104.03315 297.168658 
L 100.258097 297.168658 
L 96.483044 300.640438 
L 92.707992 304.112219 
L 88.932939 307.584 
L 85.157886 307.584 
L 81.382833 307.584 
L 77.60778 307.584 
L 73.832727 307.584 
z
" clip-path="url(#p4478ce1e31)" style="fill: #ff0000"/>
   </g>
   <g id="PolyCollection_4">
    <path d="M 73.832727 307.584 
L 73.832727 307.584 
L 77.60778 307.584 
L 81.382833 307.584 
L 85.157886 307.584 
L 88.932939 307.584 
L 92.707992 304.112219 
L 96.483044 300.640438 
L 100.258097 297.168658 
L 104.03315 297.168658 
L 107.808203 297.168658 
L 111.583256 300.640438 
L 115.358309 304.112219 
L 119.133362 307.584 
L 122.908414 307.584 
L 126.683467 307.584 
L 130.45852 307.584 
L 134.233573 307.584 
L 138.008626 307.584 
L 141.783679 307.584 
L 145.558732 307.584 
L 149.333784 307.584 
L 153.108837 307.584 
L 156.88389 307.584 
L 160.658943 307.584 
L 164.433996 307.584 
L 168.209049 307.584 
L 171.984101 307.584 
L 175.759154 307.584 
L 179.534207 307.584 
L 183.30926 307.584 
L 187.084313 307.584 
L 190.859366 307.584 
L 194.634419 307.584 
L 198.409471 307.584 
L 202.184524 307.584 
L 205.959577 307.584 
L 209.73463 307.584 
L 213.509683 307.584 
L 217.284736 307.584 
L 221.059789 307.584 
L 224.834841 307.584 
L 228.609894 307.584 
L 232.384947 307.584 
L 236.16 307.584 
L 239.935053 307.584 
L 243.710106 307.584 
L 247.485159 307.584 
L 251.260211 307.584 
L 255.035264 307.584 
L 258.810317 307.584 
L 262.58537 307.584 
L 266.360423 307.584 
L 270.135476 307.584 
L 273.910529 307.584 
L 277.685581 307.584 
L 281.460634 307.584 
L 285.235687 307.584 
L 289.01074 307.584 
L 292.785793 307.584 
L 296.560846 307.584 
L 300.335899 307.584 
L 304.110951 307.584 
L 307.886004 307.584 
L 311.661057 307.584 
L 315.43611 307.584 
L 319.211163 307.584 
L 322.986216 307.584 
L 326.761268 307.584 
L 330.536321 307.584 
L 334.311374 307.584 
L 338.086427 307.584 
L 341.86148 307.584 
L 345.636533 307.584 
L 349.411586 307.584 
L 353.186638 307.584 
L 356.961691 307.584 
L 360.736744 307.584 
L 364.511797 307.584 
L 368.28685 307.584 
L 372.061903 307.584 
L 375.836956 307.584 
L 379.612008 307.584 
L 383.387061 307.584 
L 387.162114 307.584 
L 390.937167 307.584 
L 394.71222 307.584 
L 398.487273 307.584 
L 398.487273 307.584 
L 398.487273 307.584 
L 394.71222 307.584 
L 390.937167 307.584 
L 387.162114 307.584 
L 383.387061 307.584 
L 379.612008 307.584 
L 375.836956 307.584 
L 372.061903 307.584 
L 368.28685 307.584 
L 364.511797 307.584 
L 360.736744 307.584 
L 356.961691 307.584 
L 353.186638 307.584 
L 349.411586 307.584 
L 345.636533 307.584 
L 341.86148 307.584 
L 338.086427 307.584 
L 334.311374 307.584 
L 330.536321 307.584 
L 326.761268 307.584 
L 322.986216 307.584 
L 319.211163 307.584 
L 315.43611 307.584 
L 311.661057 307.584 
L 307.886004 307.584 
L 304.110951 307.584 
L 300.335899 307.584 
L 296.560846 307.584 
L 292.785793 307.584 
L 289.01074 307.584 
L 285.235687 307.584 
L 281.460634 307.584 
L 277.685581 307.584 
L 273.910529 307.584 
L 270.135476 307.584 
L 266.360423 307.584 
L 262.58537 307.584 
L 258.810317 307.584 
L 255.035264 307.584 
L 251.260211 307.584 
L 247.485159 307.584 
L 243.710106 307.584 
L 239.935053 307.584 
L 236.16 307.584 
L 232.384947 307.584 
L 228.609894 307.584 
L 224.834841 307.584 
L 221.059789 307.584 
L 217.284736 307.584 
L 213.509683 307.584 
L 209.73463 307.584 
L 205.959577 307.584 
L 202.184524 307.584 
L 198.409471 307.584 
L 194.634419 307.584 
L 190.859366 307.584 
L 187.084313 307.584 
L 183.30926 307.584 
L 179.534207 307.584 
L 175.759154 307.584 
L 171.984101 307.584 
L 168.209049 307.584 
L 164.433996 307.584 
L 160.658943 307.584 
L 156.88389 307.584 
L 153.108837 307.584 
L 149.333784 307.584 
L 145.558732 307.584 
L 141.783679 307.584 
L 138.008626 307.584 
L 134.233573 307.584 
L 130.45852 307.584 
L 126.683467 307.584 
L 122.908414 307.584 
L 119.133362 307.584 
L 115.358309 304.112219 
L 111.583256 300.640438 
L 107.808203 297.168658 
L 104.03315 297.168658 
L 100.258097 293.696877 
L 96.483044 297.168658 
L 92.707992 300.640438 
L 88.932939 304.112219 
L 85.157886 304.112219 
L 81.382833 307.584 
L 77.60778 307.584 
L 73.832727 307.584 
z
" clip-path="url(#p4478ce1e31)" style="fill: #800080"/>
   </g>
   <g id="PolyCollection_5">
    <path d="M 73.832727 307.584 
L 73.832727 307.584 
L 77.60778 307.584 
L 81.382833 307.584 
L 85.157886 304.112219 
L 88.932939 304.112219 
L 92.707992 300.640438 
L 96.483044 297.168658 
L 100.258097 293.696877 
L 104.03315 297.168658 
L 107.808203 297.168658 
L 111.583256 300.640438 
L 115.358309 304.112219 
L 119.133362 307.584 
L 122.908414 307.584 
L 126.683467 307.584 
L 130.45852 307.584 
L 134.233573 307.584 
L 138.008626 307.584 
L 141.783679 307.584 
L 145.558732 307.584 
L 149.333784 307.584 
L 153.108837 307.584 
L 156.88389 307.584 
L 160.658943 307.584 
L 164.433996 307.584 
L 168.209049 307.584 
L 171.984101 307.584 
L 175.759154 307.584 
L 179.534207 307.584 
L 183.30926 307.584 
L 187.084313 307.584 
L 190.859366 307.584 
L 194.634419 307.584 
L 198.409471 307.584 
L 202.184524 307.584 
L 205.959577 307.584 
L 209.73463 307.584 
L 213.509683 307.584 
L 217.284736 307.584 
L 221.059789 307.584 
L 224.834841 307.584 
L 228.609894 307.584 
L 232.384947 307.584 
L 236.16 307.584 
L 239.935053 307.584 
L 243.710106 307.584 
L 247.485159 307.584 
L 251.260211 307.584 
L 255.035264 307.584 
L 258.810317 307.584 
L 262.58537 307.584 
L 266.360423 307.584 
L 270.135476 307.584 
L 273.910529 307.584 
L 277.685581 307.584 
L 281.460634 307.584 
L 285.235687 307.584 
L 289.01074 307.584 
L 292.785793 307.584 
L 296.560846 307.584 
L 300.335899 307.584 
L 304.110951 307.584 
L 307.886004 307.584 
L 311.661057 307.584 
L 315.43611 307.584 
L 319.211163 307.584 
L 322.986216 307.584 
L 326.761268 307.584 
L 330.536321 307.584 
L 334.311374 307.584 
L 338.086427 307.584 
L 341.86148 307.584 
L 345.636533 307.584 
L 349.411586 307.584 
L 353.186638 307.584 
L 356.961691 307.584 
L 360.736744 307.584 
L 364.511797 307.584 
L 368.28685 307.584 
L 372.061903 307.584 
L 375.836956 307.584 
L 379.612008 307.584 
L 383.387061 307.584 
L 387.162114 307.584 
L 390.937167 307.584 
L 394.71222 307.584 
L 398.487273 307.584 
L 398.487273 307.584 
L 398.487273 307.584 
L 394.71222 307.584 
L 390.937167 307.584 
L 387.162114 307.584 
L 383.387061 307.584 
L 379.612008 307.584 
L 375.836956 307.584 
L 372.061903 307.584 
L 368.28685 307.584 
L 364.511797 307.584 
L 360.736744 307.584 
L 356.961691 307.584 
L 353.186638 307.584 
L 349.411586 307.584 
L 345.636533 307.584 
L 341.86148 307.584 
L 338.086427 307.584 
L 334.311374 307.584 
L 330.536321 307.584 
L 326.761268 307.584 
L 322.986216 307.584 
L 319.211163 307.584 
L 315.43611 307.584 
L 311.661057 307.584 
L 307.886004 307.584 
L 304.110951 307.584 
L 300.335899 307.584 
L 296.560846 307.584 
L 292.785793 307.584 
L 289.01074 307.584 
L 285.235687 307.584 
L 281.460634 307.584 
L 277.685581 307.584 
L 273.910529 307.584 
L 270.135476 307.584 
L 266.360423 307.584 
L 262.58537 307.584 
L 258.810317 307.584 
L 255.035264 307.584 
L 251.260211 307.584 
L 247.485159 307.584 
L 243.710106 307.584 
L 239.935053 307.584 
L 236.16 307.584 
L 232.384947 307.584 
L 228.609894 307.584 
L 224.834841 307.584 
L 221.059789 307.584 
L 217.284736 307.584 
L 213.509683 307.584 
L 209.73463 307.584 
L 205.959577 307.584 
L 202.184524 307.584 
L 198.409471 307.584 
L 194.634419 307.584 
L 190.859366 307.584 
L 187.084313 307.584 
L 183.30926 307.584 
L 179.534207 307.584 
L 175.759154 307.584 
L 171.984101 307.584 
L 168.209049 307.584 
L 164.433996 307.584 
L 160.658943 307.584 
L 156.88389 307.584 
L 153.108837 307.584 
L 149.333784 307.584 
L 145.558732 307.584 
L 141.783679 307.584 
L 138.008626 307.584 
L 134.233573 307.584 
L 130.45852 307.584 
L 126.683467 307.584 
L 122.908414 307.584 
L 119.133362 307.584 
L 115.358309 304.112219 
L 111.583256 300.640438 
L 107.808203 297.168658 
L 104.03315 297.168658 
L 100.258097 293.696877 
L 96.483044 297.168658 
L 92.707992 300.640438 
L 88.932939 304.112219 
L 85.157886 304.112219 
L 81.382833 307.584 
L 77.60778 307.584 
L 73.832727 307.584 
z
" clip-path="url(#p4478ce1e31)" style="fill: #a52a2a"/>
   </g>
   <g id="PolyCollection_6">
    <path d="M 73.832727 307.584 
L 73.832727 307.584 
L 77.60778 307.584 
L 81.382833 307.584 
L 85.157886 304.112219 
L 88.932939 304.112219 
L 92.707992 300.640438 
L 96.483044 297.168658 
L 100.258097 293.696877 
L 104.03315 297.168658 
L 107.808203 297.168658 
L 111.583256 300.640438 
L 115.358309 304.112219 
L 119.133362 307.584 
L 122.908414 307.584 
L 126.683467 307.584 
L 130.45852 307.584 
L 134.233573 307.584 
L 138.008626 307.584 
L 141.783679 307.584 
L 145.558732 307.584 
L 149.333784 307.584 
L 153.108837 307.584 
L 156.88389 307.584 
L 160.658943 307.584 
L 164.433996 307.584 
L 168.209049 307.584 
L 171.984101 307.584 
L 175.759154 307.584 
L 179.534207 307.584 
L 183.30926 307.584 
L 187.084313 307.584 
L 190.859366 307.584 
L 194.634419 307.584 
L 198.409471 307.584 
L 202.184524 307.584 
L 205.959577 307.584 
L 209.73463 307.584 
L 213.509683 307.584 
L 217.284736 307.584 
L 221.059789 307.584 
L 224.834841 307.584 
L 228.609894 307.584 
L 232.384947 307.584 
L 236.16 307.584 
L 239.935053 307.584 
L 243.710106 307.584 
L 247.485159 307.584 
L 251.260211 307.584 
L 255.035264 307.584 
L 258.810317 307.584 
L 262.58537 307.584 
L 266.360423 307.584 
L 270.135476 307.584 
L 273.910529 307.584 
L 277.685581 307.584 
L 281.460634 307.584 
L 285.235687 307.584 
L 289.01074 307.584 
L 292.785793 307.584 
L 296.560846 307.584 
L 300.335899 307.584 
L 304.110951 307.584 
L 307.886004 307.584 
L 311.661057 307.584 
L 315.43611 307.584 
L 319.211163 307.584 
L 322.986216 307.584 
L 326.761268 307.584 
L 330.536321 307.584 
L 334.311374 307.584 
L 338.086427 307.584 
L 341.86148 307.584 
L 345.636533 307.584 
L 349.411586 307.584 
L 353.186638 307.584 
L 356.961691 307.584 
L 360.736744 307.584 
L 364.511797 307.584 
L 368.28685 307.584 
L 372.061903 307.584 
L 375.836956 307.584 
L 379.612008 307.584 
L 383.387061 307.584 
L 387.162114 307.584 
L 390.937167 307.584 
L 394.71222 307.584 
L 398.487273 307.584 
L 398.487273 64.559342 
L 398.487273 64.559342 
L 394.71222 68.031123 
L 390.937167 71.502904 
L 387.162114 74.974685 
L 383.387061 78.446466 
L 379.612008 81.918247 
L 375.836956 85.390027 
L 372.061903 88.861808 
L 368.28685 92.333589 
L 364.511797 95.80537 
L 360.736744 99.277151 
L 356.961691 102.748932 
L 353.186638 106.220712 
L 349.411586 109.692493 
L 345.636533 113.164274 
L 341.86148 116.636055 
L 338.086427 120.107836 
L 334.311374 123.579616 
L 330.536321 127.051397 
L 326.761268 130.523178 
L 322.986216 133.994959 
L 319.211163 137.46674 
L 315.43611 140.938521 
L 311.661057 144.410301 
L 307.886004 147.882082 
L 304.110951 151.353863 
L 300.335899 154.825644 
L 296.560846 158.297425 
L 292.785793 161.769205 
L 289.01074 165.240986 
L 285.235687 168.712767 
L 281.460634 172.184548 
L 277.685581 175.656329 
L 273.910529 179.12811 
L 270.135476 182.59989 
L 266.360423 186.071671 
L 262.58537 189.543452 
L 258.810317 193.015233 
L 255.035264 196.487014 
L 251.260211 199.958795 
L 247.485159 203.430575 
L 243.710106 206.902356 
L 239.935053 210.374137 
L 236.16 213.845918 
L 232.384947 217.317699 
L 228.609894 220.789479 
L 224.834841 224.26126 
L 221.059789 227.733041 
L 217.284736 231.204822 
L 213.509683 234.676603 
L 209.73463 238.148384 
L 205.959577 241.620164 
L 202.184524 245.091945 
L 198.409471 248.563726 
L 194.634419 248.563726 
L 190.859366 252.035507 
L 187.084313 255.507288 
L 183.30926 258.979068 
L 179.534207 262.450849 
L 175.759154 265.92263 
L 171.984101 269.394411 
L 168.209049 272.866192 
L 164.433996 276.337973 
L 160.658943 279.809753 
L 156.88389 283.281534 
L 153.108837 286.753315 
L 149.333784 290.225096 
L 145.558732 293.696877 
L 141.783679 297.168658 
L 138.008626 297.168658 
L 134.233573 297.168658 
L 130.45852 300.640438 
L 126.683467 304.112219 
L 122.908414 307.584 
L 119.133362 307.584 
L 115.358309 304.112219 
L 111.583256 300.640438 
L 107.808203 297.168658 
L 104.03315 297.168658 
L 100.258097 293.696877 
L 96.483044 297.168658 
L 92.707992 300.640438 
L 88.932939 304.112219 
L 85.157886 304.112219 
L 81.382833 307.584 
L 77.60778 307.584 
L 73.832727 307.584 
z
" clip-path="url(#p4478ce1e31)" style="fill: #ffc0cb"/>
   </g>
   <g id="PolyCollection_7">
    <path d="M 73.832727 307.584 
L 73.832727 307.584 
L 77.60778 307.584 
L 81.382833 307.584 
L 85.157886 304.112219 
L 88.932939 304.112219 
L 92.707992 300.640438 
L 96.483044 297.168658 
L 100.258097 293.696877 
L 104.03315 297.168658 
L 107.808203 297.168658 
L 111.583256 300.640438 
L 115.358309 304.112219 
L 119.133362 307.584 
L 122.908414 307.584 
L 126.683467 304.112219 
L 130.45852 300.640438 
L 134.233573 297.168658 
L 138.008626 297.168658 
L 141.783679 297.168658 
L 145.558732 293.696877 
L 149.333784 290.225096 
L 153.108837 286.753315 
L 156.88389 283.281534 
L 160.658943 279.809753 
L 164.433996 276.337973 
L 168.209049 272.866192 
L 171.984101 269.394411 
L 175.759154 265.92263 
L 179.534207 262.450849 
L 183.30926 258.979068 
L 187.084313 255.507288 
L 190.859366 252.035507 
L 194.634419 248.563726 
L 198.409471 248.563726 
L 202.184524 245.091945 
L 205.959577 241.620164 
L 209.73463 238.148384 
L 213.509683 234.676603 
L 217.284736 231.204822 
L 221.059789 227.733041 
L 224.834841 224.26126 
L 228.609894 220.789479 
L 232.384947 217.317699 
L 236.16 213.845918 
L 239.935053 210.374137 
L 243.710106 206.902356 
L 247.485159 203.430575 
L 251.260211 199.958795 
L 255.035264 196.487014 
L 258.810317 193.015233 
L 262.58537 189.543452 
L 266.360423 186.071671 
L 270.135476 182.59989 
L 273.910529 179.12811 
L 277.685581 175.656329 
L 281.460634 172.184548 
L 285.235687 168.712767 
L 289.01074 165.240986 
L 292.785793 161.769205 
L 296.560846 158.297425 
L 300.335899 154.825644 
L 304.110951 151.353863 
L 307.886004 147.882082 
L 311.661057 144.410301 
L 315.43611 140.938521 
L 319.211163 137.46674 
L 322.986216 133.994959 
L 326.761268 130.523178 
L 330.536321 127.051397 
L 334.311374 123.579616 
L 338.086427 120.107836 
L 341.86148 116.636055 
L 345.636533 113.164274 
L 349.411586 109.692493 
L 353.186638 106.220712 
L 356.961691 102.748932 
L 360.736744 99.277151 
L 364.511797 95.80537 
L 368.28685 92.333589 
L 372.061903 88.861808 
L 375.836956 85.390027 
L 379.612008 81.918247 
L 383.387061 78.446466 
L 387.162114 74.974685 
L 390.937167 71.502904 
L 394.71222 68.031123 
L 398.487273 64.559342 
L 398.487273 54.144 
L 398.487273 54.144 
L 394.71222 57.615781 
L 390.937167 61.087562 
L 387.162114 64.559342 
L 383.387061 68.031123 
L 379.612008 71.502904 
L 375.836956 74.974685 
L 372.061903 78.446466 
L 368.28685 81.918247 
L 364.511797 85.390027 
L 360.736744 88.861808 
L 356.961691 92.333589 
L 353.186638 95.80537 
L 349.411586 99.277151 
L 345.636533 102.748932 
L 341.86148 106.220712 
L 338.086427 109.692493 
L 334.311374 113.164274 
L 330.536321 116.636055 
L 326.761268 120.107836 
L 322.986216 123.579616 
L 319.211163 127.051397 
L 315.43611 130.523178 
L 311.661057 133.994959 
L 307.886004 137.46674 
L 304.110951 140.938521 
L 300.335899 144.410301 
L 296.560846 147.882082 
L 292.785793 151.353863 
L 289.01074 154.825644 
L 285.235687 158.297425 
L 281.460634 161.769205 
L 277.685581 165.240986 
L 273.910529 168.712767 
L 270.135476 172.184548 
L 266.360423 175.656329 
L 262.58537 179.12811 
L 258.810317 182.59989 
L 255.035264 186.071671 
L 251.260211 189.543452 
L 247.485159 193.015233 
L 243.710106 196.487014 
L 239.935053 199.958795 
L 236.16 203.430575 
L 232.384947 206.902356 
L 228.609894 210.374137 
L 224.834841 213.845918 
L 221.059789 217.317699 
L 217.284736 220.789479 
L 213.509683 224.26126 
L 209.73463 227.733041 
L 205.959577 231.204822 
L 202.184524 234.676603 
L 198.409471 238.148384 
L 194.634419 241.620164 
L 190.859366 245.091945 
L 187.084313 248.563726 
L 183.30926 252.035507 
L 179.534207 255.507288 
L 175.759154 258.979068 
L 171.984101 262.450849 
L 168.209049 265.92263 
L 164.433996 269.394411 
L 160.658943 272.866192 
L 156.88389 276.337973 
L 153.108837 279.809753 
L 149.333784 283.281534 
L 145.558732 286.753315 
L 141.783679 290.225096 
L 138.008626 293.696877 
L 134.233573 297.168658 
L 130.45852 300.640438 
L 126.683467 304.112219 
L 122.908414 307.584 
L 119.133362 307.584 
L 115.358309 304.112219 
L 111.583256 300.640438 
L 107.808203 297.168658 
L 104.03315 293.696877 
L 100.258097 290.225096 
L 96.483044 293.696877 
L 92.707992 297.168658 
L 88.932939 300.640438 
L 85.157886 304.112219 
L 81.382833 307.584 
L 77.60778 307.584 
L 73.832727 307.584 
z
" clip-path="url(#p4478ce1e31)" style="fill: #808080"/>
   </g>
   <g id="PolyCollection_8">
    <path d="M 73.832727 307.584 
L 73.832727 307.584 
L 77.60778 307.584 
L 81.382833 307.584 
L 85.157886 304.112219 
L 88.932939 300.640438 
L 92.707992 297.168658 
L 96.483044 293.696877 
L 100.258097 290.225096 
L 104.03315 293.696877 
L 107.808203 297.168658 
L 111.583256 300.640438 
L 115.358309 304.112219 
L 119.133362 307.584 
L 122.908414 307.584 
L 126.683467 304.112219 
L 130.45852 300.640438 
L 134.233573 297.168658 
L 138.008626 293.696877 
L 141.783679 290.225096 
L 145.558732 286.753315 
L 149.333784 283.281534 
L 153.108837 279.809753 
L 156.88389 276.337973 
L 160.658943 272.866192 
L 164.433996 269.394411 
L 168.209049 265.92263 
L 171.984101 262.450849 
L 175.759154 258.979068 
L 179.534207 255.507288 
L 183.30926 252.035507 
L 187.084313 248.563726 
L 190.859366 245.091945 
L 194.634419 241.620164 
L 198.409471 238.148384 
L 202.184524 234.676603 
L 205.959577 231.204822 
L 209.73463 227.733041 
L 213.509683 224.26126 
L 217.284736 220.789479 
L 221.059789 217.317699 
L 224.834841 213.845918 
L 228.609894 210.374137 
L 232.384947 206.902356 
L 236.16 203.430575 
L 239.935053 199.958795 
L 243.710106 196.487014 
L 247.485159 193.015233 
L 251.260211 189.543452 
L 255.035264 186.071671 
L 258.810317 182.59989 
L 262.58537 179.12811 
L 266.360423 175.656329 
L 270.135476 172.184548 
L 273.910529 168.712767 
L 277.685581 165.240986 
L 281.460634 161.769205 
L 285.235687 158.297425 
L 289.01074 154.825644 
L 292.785793 151.353863 
L 296.560846 147.882082 
L 300.335899 144.410301 
L 304.110951 140.938521 
L 307.886004 137.46674 
L 311.661057 133.994959 
L 315.43611 130.523178 
L 319.211163 127.051397 
L 322.986216 123.579616 
L 326.761268 120.107836 
L 330.536321 116.636055 
L 334.311374 113.164274 
L 338.086427 109.692493 
L 341.86148 106.220712 
L 345.636533 102.748932 
L 349.411586 99.277151 
L 353.186638 95.80537 
L 356.961691 92.333589 
L 360.736744 88.861808 
L 364.511797 85.390027 
L 368.28685 81.918247 
L 372.061903 78.446466 
L 375.836956 74.974685 
L 379.612008 71.502904 
L 383.387061 68.031123 
L 387.162114 64.559342 
L 390.937167 61.087562 
L 394.71222 57.615781 
L 398.487273 54.144 
L 398.487273 54.144 
L 398.487273 54.144 
L 394.71222 57.615781 
L 390.937167 61.087562 
L 387.162114 64.559342 
L 383.387061 68.031123 
L 379.612008 71.502904 
L 375.836956 74.974685 
L 372.061903 78.446466 
L 368.28685 81.918247 
L 364.511797 85.390027 
L 360.736744 88.861808 
L 356.961691 92.333589 
L 353.186638 95.80537 
L 349.411586 99.277151 
L 345.636533 102.748932 
L 341.86148 106.220712 
L 338.086427 109.692493 
L 334.311374 113.164274 
L 330.536321 116.636055 
L 326.761268 120.107836 
L 322.986216 123.579616 
L 319.211163 127.051397 
L 315.43611 130.523178 
L 311.661057 133.994959 
L 307.886004 137.46674 
L 304.110951 140.938521 
L 300.335899 144.410301 
L 296.560846 147.882082 
L 292.785793 151.353863 
L 289.01074 154.825644 
L 285.235687 158.297425 
L 281.460634 161.769205 
L 277.685581 165.240986 
L 273.910529 168.712767 
L 270.135476 172.184548 
L 266.360423 175.656329 
L 262.58537 179.12811 
L 258.810317 182.59989 
L 255.035264 186.071671 
L 251.260211 189.543452 
L 247.485159 193.015233 
L 243.710106 196.487014 
L 239.935053 199.958795 
L 236.16 203.430575 
L 232.384947 206.902356 
L 228.609894 210.374137 
L 224.834841 213.845918 
L 221.059789 217.317699 
L 217.284736 220.789479 
L 213.509683 224.26126 
L 209.73463 227.733041 
L 205.959577 231.204822 
L 202.184524 234.676603 
L 198.409471 238.148384 
L 194.634419 241.620164 
L 190.859366 245.091945 
L 187.084313 248.563726 
L 183.30926 252.035507 
L 179.534207 255.507288 
L 175.759154 258.979068 
L 171.984101 262.450849 
L 168.209049 265.92263 
L 164.433996 269.394411 
L 160.658943 272.866192 
L 156.88389 276.337973 
L 153.108837 279.809753 
L 149.333784 283.281534 
L 145.558732 286.753315 
L 141.783679 290.225096 
L 138.008626 293.696877 
L 134.233573 297.168658 
L 130.45852 300.640438 
L 126.683467 304.112219 
L 122.908414 307.584 
L 119.133362 307.584 
L 115.358309 304.112219 
L 111.583256 300.640438 
L 107.808203 297.168658 
L 104.03315 293.696877 
L 100.258097 290.225096 
L 96.483044 293.696877 
L 92.707992 297.168658 
L 88.932939 300.640438 
L 85.157886 304.112219 
L 81.382833 307.584 
L 77.60778 307.584 
L 73.832727 307.584 
z
" clip-path="url(#p4478ce1e31)" style="fill: #00ff00"/>
   </g>
   <g id="matplotlib.axis_1">
    <g id="xtick_1">
     <g id="line2d_1">
      <defs>
       <path id="m41f4562cec" d="M 0 0 
L 0 3.5 
" style="stroke: #000000; stroke-width: 0.8"/>
      </defs>
      <g>
       <use xlink:href="#m41f4562cec" x="73.832727" y="307.584" style="stroke: #000000; stroke-width: 0.8"/>
      </g>
     </g>
     <g id="text_1">
      <!-- 0 -->
      <g transform="translate(70.651477 322.182437)scale(0.1 -0.1)">
       <defs>
        <path id="DejaVuSans-30" d="M 2034 4250 
Q 1547 4250 1301 3770 
Q 1056 3291 1056 2328 
Q 1056 1369 1301 889 
Q 1547 409 2034 409 
Q 2525 409 2770 889 
Q 3016 1369 3016 2328 
Q 3016 3291 2770 3770 
Q 2525 4250 2034 4250 
z
M 2034 4750 
Q 2819 4750 3233 4129 
Q 3647 3509 3647 2328 
Q 3647 1150 3233 529 
Q 2819 -91 2034 -91 
Q 1250 -91 836 529 
Q 422 1150 422 2328 
Q 422 3509 836 4129 
Q 1250 4750 2034 4750 
z
" transform="scale(0.015625)"/>
       </defs>
       <use xlink:href="#DejaVuSans-30"/>
      </g>
     </g>
    </g>
    <g id="xtick_2">
     <g id="line2d_2">
      <g>
       <use xlink:href="#m41f4562cec" x="149.333784" y="307.584" style="stroke: #000000; stroke-width: 0.8"/>
      </g>
     </g>
     <g id="text_2">
      <!-- 20 -->
      <g transform="translate(142.971284 322.182437)scale(0.1 -0.1)">
       <defs>
        <path id="DejaVuSans-32" d="M 1228 531 
L 3431 531 
L 3431 0 
L 469 0 
L 469 531 
Q 828 903 1448 1529 
Q 2069 2156 2228 2338 
Q 2531 2678 2651 2914 
Q 2772 3150 2772 3378 
Q 2772 3750 2511 3984 
Q 2250 4219 1831 4219 
Q 1534 4219 1204 4116 
Q 875 4013 500 3803 
L 500 4441 
Q 881 4594 1212 4672 
Q 1544 4750 1819 4750 
Q 2544 4750 2975 4387 
Q 3406 4025 3406 3419 
Q 3406 3131 3298 2873 
Q 3191 2616 2906 2266 
Q 2828 2175 2409 1742 
Q 1991 1309 1228 531 
z
" transform="scale(0.015625)"/>
       </defs>
       <use xlink:href="#DejaVuSans-32"/>
       <use xlink:href="#DejaVuSans-30" x="63.623047"/>
      </g>
     </g>
    </g>
    <g id="xtick_3">
     <g id="line2d_3">
      <g>
       <use xlink:href="#m41f4562cec" x="224.834841" y="307.584" style="stroke: #000000; stroke-width: 0.8"/>
      </g>
     </g>
     <g id="text_3">
      <!-- 40 -->
      <g transform="translate(218.472341 322.182437)scale(0.1 -0.1)">
       <defs>
        <path id="DejaVuSans-34" d="M 2419 4116 
L 825 1625 
L 2419 1625 
L 2419 4116 
z
M 2253 4666 
L 3047 4666 
L 3047 1625 
L 3713 1625 
L 3713 1100 
L 3047 1100 
L 3047 0 
L 2419 0 
L 2419 1100 
L 313 1100 
L 313 1709 
L 2253 4666 
z
" transform="scale(0.015625)"/>
       </defs>
       <use xlink:href="#DejaVuSans-34"/>
       <use xlink:href="#DejaVuSans-30" x="63.623047"/>
      </g>
     </g>
    </g>
    <g id="xtick_4">
     <g id="line2d_4">
      <g>
       <use xlink:href="#m41f4562cec" x="300.335899" y="307.584" style="stroke: #000000; stroke-width: 0.8"/>
      </g>
     </g>
     <g id="text_4">
      <!-- 60 -->
      <g transform="translate(293.973399 322.182437)scale(0.1 -0.1)">
       <defs>
        <path id="DejaVuSans-36" d="M 2113 2584 
Q 1688 2584 1439 2293 
Q 1191 2003 1191 1497 
Q 1191 994 1439 701 
Q 1688 409 2113 409 
Q 2538 409 2786 701 
Q 3034 994 3034 1497 
Q 3034 2003 2786 2293 
Q 2538 2584 2113 2584 
z
M 3366 4563 
L 3366 3988 
Q 3128 4100 2886 4159 
Q 2644 4219 2406 4219 
Q 1781 4219 1451 3797 
Q 1122 3375 1075 2522 
Q 1259 2794 1537 2939 
Q 1816 3084 2150 3084 
Q 2853 3084 3261 2657 
Q 3669 2231 3669 1497 
Q 3669 778 3244 343 
Q 2819 -91 2113 -91 
Q 1303 -91 875 529 
Q 447 1150 447 2328 
Q 447 3434 972 4092 
Q 1497 4750 2381 4750 
Q 2619 4750 2861 4703 
Q 3103 4656 3366 4563 
z
" transform="scale(0.015625)"/>
       </defs>
       <use xlink:href="#DejaVuSans-36"/>
       <use xlink:href="#DejaVuSans-30" x="63.623047"/>
      </g>
     </g>
    </g>
    <g id="xtick_5">
     <g id="line2d_5">
      <g>
       <use xlink:href="#m41f4562cec" x="375.836956" y="307.584" style="stroke: #000000; stroke-width: 0.8"/>
      </g>
     </g>
     <g id="text_5">
      <!-- 80 -->
      <g transform="translate(369.474456 322.182437)scale(0.1 -0.1)">
       <defs>
        <path id="DejaVuSans-38" d="M 2034 2216 
Q 1584 2216 1326 1975 
Q 1069 1734 1069 1313 
Q 1069 891 1326 650 
Q 1584 409 2034 409 
Q 2484 409 2743 651 
Q 3003 894 3003 1313 
Q 3003 1734 2745 1975 
Q 2488 2216 2034 2216 
z
M 1403 2484 
Q 997 2584 770 2862 
Q 544 3141 544 3541 
Q 544 4100 942 4425 
Q 1341 4750 2034 4750 
Q 2731 4750 3128 4425 
Q 3525 4100 3525 3541 
Q 3525 3141 3298 2862 
Q 3072 2584 2669 2484 
Q 3125 2378 3379 2068 
Q 3634 1759 3634 1313 
Q 3634 634 3220 271 
Q 2806 -91 2034 -91 
Q 1263 -91 848 271 
Q 434 634 434 1313 
Q 434 1759 690 2068 
Q 947 2378 1403 2484 
z
M 1172 3481 
Q 1172 3119 1398 2916 
Q 1625 2713 2034 2713 
Q 2441 2713 2670 2916 
Q 2900 3119 2900 3481 
Q 2900 3844 2670 4047 
Q 2441 4250 2034 4250 
Q 1625 4250 1398 4047 
Q 1172 3844 1172 3481 
z
" transform="scale(0.015625)"/>
       </defs>
       <use xlink:href="#DejaVuSans-38"/>
       <use xlink:href="#DejaVuSans-30" x="63.623047"/>
      </g>
     </g>
    </g>
   </g>
   <g id="matplotlib.axis_2">
    <g id="ytick_1">
     <g id="line2d_6">
      <defs>
       <path id="m162122b2f5" d="M 0 0 
L -3.5 0 
" style="stroke: #000000; stroke-width: 0.8"/>
      </defs>
      <g>
       <use xlink:href="#m162122b2f5" x="57.6" y="307.584" style="stroke: #000000; stroke-width: 0.8"/>
      </g>
     </g>
     <g id="text_6">
      <!-- 0 -->
      <g transform="translate(44.2375 311.383219)scale(0.1 -0.1)">
       <use xlink:href="#DejaVuSans-30"/>
      </g>
     </g>
    </g>
    <g id="ytick_2">
     <g id="line2d_7">
      <g>
       <use xlink:href="#m162122b2f5" x="57.6" y="272.866192" style="stroke: #000000; stroke-width: 0.8"/>
      </g>
     </g>
     <g id="text_7">
      <!-- 10 -->
      <g transform="translate(37.875 276.665411)scale(0.1 -0.1)">
       <defs>
        <path id="DejaVuSans-31" d="M 794 531 
L 1825 531 
L 1825 4091 
L 703 3866 
L 703 4441 
L 1819 4666 
L 2450 4666 
L 2450 531 
L 3481 531 
L 3481 0 
L 794 0 
L 794 531 
z
" transform="scale(0.015625)"/>
       </defs>
       <use xlink:href="#DejaVuSans-31"/>
       <use xlink:href="#DejaVuSans-30" x="63.623047"/>
      </g>
     </g>
    </g>
    <g id="ytick_3">
     <g id="line2d_8">
      <g>
       <use xlink:href="#m162122b2f5" x="57.6" y="238.148384" style="stroke: #000000; stroke-width: 0.8"/>
      </g>
     </g>
     <g id="text_8">
      <!-- 20 -->
      <g transform="translate(37.875 241.947602)scale(0.1 -0.1)">
       <use xlink:href="#DejaVuSans-32"/>
       <use xlink:href="#DejaVuSans-30" x="63.623047"/>
      </g>
     </g>
    </g>
    <g id="ytick_4">
     <g id="line2d_9">
      <g>
       <use xlink:href="#m162122b2f5" x="57.6" y="203.430575" style="stroke: #000000; stroke-width: 0.8"/>
      </g>
     </g>
     <g id="text_9">
      <!-- 30 -->
      <g transform="translate(37.875 207.229794)scale(0.1 -0.1)">
       <defs>
        <path id="DejaVuSans-33" d="M 2597 2516 
Q 3050 2419 3304 2112 
Q 3559 1806 3559 1356 
Q 3559 666 3084 287 
Q 2609 -91 1734 -91 
Q 1441 -91 1130 -33 
Q 819 25 488 141 
L 488 750 
Q 750 597 1062 519 
Q 1375 441 1716 441 
Q 2309 441 2620 675 
Q 2931 909 2931 1356 
Q 2931 1769 2642 2001 
Q 2353 2234 1838 2234 
L 1294 2234 
L 1294 2753 
L 1863 2753 
Q 2328 2753 2575 2939 
Q 2822 3125 2822 3475 
Q 2822 3834 2567 4026 
Q 2313 4219 1838 4219 
Q 1578 4219 1281 4162 
Q 984 4106 628 3988 
L 628 4550 
Q 988 4650 1302 4700 
Q 1616 4750 1894 4750 
Q 2613 4750 3031 4423 
Q 3450 4097 3450 3541 
Q 3450 3153 3228 2886 
Q 3006 2619 2597 2516 
z
" transform="scale(0.015625)"/>
       </defs>
       <use xlink:href="#DejaVuSans-33"/>
       <use xlink:href="#DejaVuSans-30" x="63.623047"/>
      </g>
     </g>
    </g>
    <g id="ytick_5">
     <g id="line2d_10">
      <g>
       <use xlink:href="#m162122b2f5" x="57.6" y="168.712767" style="stroke: #000000; stroke-width: 0.8"/>
      </g>
     </g>
     <g id="text_10">
      <!-- 40 -->
      <g transform="translate(37.875 172.511986)scale(0.1 -0.1)">
       <use xlink:href="#DejaVuSans-34"/>
       <use xlink:href="#DejaVuSans-30" x="63.623047"/>
      </g>
     </g>
    </g>
    <g id="ytick_6">
     <g id="line2d_11">
      <g>
       <use xlink:href="#m162122b2f5" x="57.6" y="133.994959" style="stroke: #000000; stroke-width: 0.8"/>
      </g>
     </g>
     <g id="text_11">
      <!-- 50 -->
      <g transform="translate(37.875 137.794178)scale(0.1 -0.1)">
       <defs>
        <path id="DejaVuSans-35" d="M 691 4666 
L 3169 4666 
L 3169 4134 
L 1269 4134 
L 1269 2991 
Q 1406 3038 1543 3061 
Q 1681 3084 1819 3084 
Q 2600 3084 3056 2656 
Q 3513 2228 3513 1497 
Q 3513 744 3044 326 
Q 2575 -91 1722 -91 
Q 1428 -91 1123 -41 
Q 819 9 494 109 
L 494 744 
Q 775 591 1075 516 
Q 1375 441 1709 441 
Q 2250 441 2565 725 
Q 2881 1009 2881 1497 
Q 2881 1984 2565 2268 
Q 2250 2553 1709 2553 
Q 1456 2553 1204 2497 
Q 953 2441 691 2322 
L 691 4666 
z
" transform="scale(0.015625)"/>
       </defs>
       <use xlink:href="#DejaVuSans-35"/>
       <use xlink:href="#DejaVuSans-30" x="63.623047"/>
      </g>
     </g>
    </g>
    <g id="ytick_7">
     <g id="line2d_12">
      <g>
       <use xlink:href="#m162122b2f5" x="57.6" y="99.277151" style="stroke: #000000; stroke-width: 0.8"/>
      </g>
     </g>
     <g id="text_12">
      <!-- 60 -->
      <g transform="translate(37.875 103.076369)scale(0.1 -0.1)">
       <use xlink:href="#DejaVuSans-36"/>
       <use xlink:href="#DejaVuSans-30" x="63.623047"/>
      </g>
     </g>
    </g>
    <g id="ytick_8">
     <g id="line2d_13">
      <g>
       <use xlink:href="#m162122b2f5" x="57.6" y="64.559342" style="stroke: #000000; stroke-width: 0.8"/>
      </g>
     </g>
     <g id="text_13">
      <!-- 70 -->
      <g transform="translate(37.875 68.358561)scale(0.1 -0.1)">
       <defs>
        <path id="DejaVuSans-37" d="M 525 4666 
L 3525 4666 
L 3525 4397 
L 1831 0 
L 1172 0 
L 2766 4134 
L 525 4134 
L 525 4666 
z
" transform="scale(0.015625)"/>
       </defs>
       <use xlink:href="#DejaVuSans-37"/>
       <use xlink:href="#DejaVuSans-30" x="63.623047"/>
      </g>
     </g>
    </g>
   </g>
   <g id="patch_3">
    <path d="M 57.6 307.584 
L 57.6 41.472 
" style="fill: none; stroke: #000000; stroke-width: 0.8; stroke-linejoin: miter; stroke-linecap: square"/>
   </g>
   <g id="patch_4">
    <path d="M 414.72 307.584 
L 414.72 41.472 
" style="fill: none; stroke: #000000; stroke-width: 0.8; stroke-linejoin: miter; stroke-linecap: square"/>
   </g>
   <g id="patch_5">
    <path d="M 57.6 307.584 
L 414.72 307.584 
" style="fill: none; stroke: #000000; stroke-width: 0.8; stroke-linejoin: miter; stroke-linecap: square"/>
   </g>
   <g id="patch_6">
    <path d="M 57.6 41.472 
L 414.72 41.472 
" style="fill: none; stroke: #000000; stroke-width: 0.8; stroke-linejoin: miter; stroke-linecap: square"/>
   </g>
   <g id="text_14">
    <!-- interactive-complex-8 -->
    <g transform="translate(170.36625 35.472)scale(0.12 -0.12)">
     <defs>
      <path id="DejaVuSans-69" d="M 603 3500 
L 1178 3500 
L 1178 0 
L 603 0 
L 603 3500 
z
M 603 4863 
L 1178 4863 
L 1178 4134 
L 603 4134 
L 603 4863 
z
" transform="scale(0.015625)"/>
      <path id="DejaVuSans-6e" d="M 3513 2113 
L 3513 0 
L 2938 0 
L 2938 2094 
Q 2938 2591 2744 2837 
Q 2550 3084 2163 3084 
Q 1697 3084 1428 2787 
Q 1159 2491 1159 1978 
L 1159 0 
L 581 0 
L 581 3500 
L 1159 3500 
L 1159 2956 
Q 1366 3272 1645 3428 
Q 1925 3584 2291 3584 
Q 2894 3584 3203 3211 
Q 3513 2838 3513 2113 
z
" transform="scale(0.015625)"/>
      <path id="DejaVuSans-74" d="M 1172 4494 
L 1172 3500 
L 2356 3500 
L 2356 3053 
L 1172 3053 
L 1172 1153 
Q 1172 725 1289 603 
Q 1406 481 1766 481 
L 2356 481 
L 2356 0 
L 1766 0 
Q 1100 0 847 248 
Q 594 497 594 1153 
L 594 3053 
L 172 3053 
L 172 3500 
L 594 3500 
L 594 4494 
L 1172 4494 
z
" transform="scale(0.015625)"/>
      <path id="DejaVuSans-65" d="M 3597 1894 
L 3597 1613 
L 953 1613 
Q 991 1019 1311 708 
Q 1631 397 2203 397 
Q 2534 397 2845 478 
Q 3156 559 3463 722 
L 3463 178 
Q 3153 47 2828 -22 
Q 2503 -91 2169 -91 
Q 1331 -91 842 396 
Q 353 884 353 1716 
Q 353 2575 817 3079 
Q 1281 3584 2069 3584 
Q 2775 3584 3186 3129 
Q 3597 2675 3597 1894 
z
M 3022 2063 
Q 3016 2534 2758 2815 
Q 2500 3097 2075 3097 
Q 1594 3097 1305 2825 
Q 1016 2553 972 2059 
L 3022 2063 
z
" transform="scale(0.015625)"/>
      <path id="DejaVuSans-72" d="M 2631 2963 
Q 2534 3019 2420 3045 
Q 2306 3072 2169 3072 
Q 1681 3072 1420 2755 
Q 1159 2438 1159 1844 
L 1159 0 
L 581 0 
L 581 3500 
L 1159 3500 
L 1159 2956 
Q 1341 3275 1631 3429 
Q 1922 3584 2338 3584 
Q 2397 3584 2469 3576 
Q 2541 3569 2628 3553 
L 2631 2963 
z
" transform="scale(0.015625)"/>
      <path id="DejaVuSans-61" d="M 2194 1759 
Q 1497 1759 1228 1600 
Q 959 1441 959 1056 
Q 959 750 1161 570 
Q 1363 391 1709 391 
Q 2188 391 2477 730 
Q 2766 1069 2766 1631 
L 2766 1759 
L 2194 1759 
z
M 3341 1997 
L 3341 0 
L 2766 0 
L 2766 531 
Q 2569 213 2275 61 
Q 1981 -91 1556 -91 
Q 1019 -91 701 211 
Q 384 513 384 1019 
Q 384 1609 779 1909 
Q 1175 2209 1959 2209 
L 2766 2209 
L 2766 2266 
Q 2766 2663 2505 2880 
Q 2244 3097 1772 3097 
Q 1472 3097 1187 3025 
Q 903 2953 641 2809 
L 641 3341 
Q 956 3463 1253 3523 
Q 1550 3584 1831 3584 
Q 2591 3584 2966 3190 
Q 3341 2797 3341 1997 
z
" transform="scale(0.015625)"/>
      <path id="DejaVuSans-63" d="M 3122 3366 
L 3122 2828 
Q 2878 2963 2633 3030 
Q 2388 3097 2138 3097 
Q 1578 3097 1268 2742 
Q 959 2388 959 1747 
Q 959 1106 1268 751 
Q 1578 397 2138 397 
Q 2388 397 2633 464 
Q 2878 531 3122 666 
L 3122 134 
Q 2881 22 2623 -34 
Q 2366 -91 2075 -91 
Q 1284 -91 818 406 
Q 353 903 353 1747 
Q 353 2603 823 3093 
Q 1294 3584 2113 3584 
Q 2378 3584 2631 3529 
Q 2884 3475 3122 3366 
z
" transform="scale(0.015625)"/>
      <path id="DejaVuSans-76" d="M 191 3500 
L 800 3500 
L 1894 563 
L 2988 3500 
L 3597 3500 
L 2284 0 
L 1503 0 
L 191 3500 
z
" transform="scale(0.015625)"/>
      <path id="DejaVuSans-2d" d="M 313 2009 
L 1997 2009 
L 1997 1497 
L 313 1497 
L 313 2009 
z
" transform="scale(0.015625)"/>
      <path id="DejaVuSans-6f" d="M 1959 3097 
Q 1497 3097 1228 2736 
Q 959 2375 959 1747 
Q 959 1119 1226 758 
Q 1494 397 1959 397 
Q 2419 397 2687 759 
Q 2956 1122 2956 1747 
Q 2956 2369 2687 2733 
Q 2419 3097 1959 3097 
z
M 1959 3584 
Q 2709 3584 3137 3096 
Q 3566 2609 3566 1747 
Q 3566 888 3137 398 
Q 2709 -91 1959 -91 
Q 1206 -91 779 398 
Q 353 888 353 1747 
Q 353 2609 779 3096 
Q 1206 3584 1959 3584 
z
" transform="scale(0.015625)"/>
      <path id="DejaVuSans-6d" d="M 3328 2828 
Q 3544 3216 3844 3400 
Q 4144 3584 4550 3584 
Q 5097 3584 5394 3201 
Q 5691 2819 5691 2113 
L 5691 0 
L 5113 0 
L 5113 2094 
Q 5113 2597 4934 2840 
Q 4756 3084 4391 3084 
Q 3944 3084 3684 2787 
Q 3425 2491 3425 1978 
L 3425 0 
L 2847 0 
L 2847 2094 
Q 2847 2600 2669 2842 
Q 2491 3084 2119 3084 
Q 1678 3084 1418 2786 
Q 1159 2488 1159 1978 
L 1159 0 
L 581 0 
L 581 3500 
L 1159 3500 
L 1159 2956 
Q 1356 3278 1631 3431 
Q 1906 3584 2284 3584 
Q 2666 3584 2933 3390 
Q 3200 3197 3328 2828 
z
" transform="scale(0.015625)"/>
      <path id="DejaVuSans-70" d="M 1159 525 
L 1159 -1331 
L 581 -1331 
L 581 3500 
L 1159 3500 
L 1159 2969 
Q 1341 3281 1617 3432 
Q 1894 3584 2278 3584 
Q 2916 3584 3314 3078 
Q 3713 2572 3713 1747 
Q 3713 922 3314 415 
Q 2916 -91 2278 -91 
Q 1894 -91 1617 61 
Q 1341 213 1159 525 
z
M 3116 1747 
Q 3116 2381 2855 2742 
Q 2594 3103 2138 3103 
Q 1681 3103 1420 2742 
Q 1159 2381 1159 1747 
Q 1159 1113 1420 752 
Q 1681 391 2138 391 
Q 2594 391 2855 752 
Q 3116 1113 3116 1747 
z
" transform="scale(0.015625)"/>
      <path id="DejaVuSans-6c" d="M 603 4863 
L 1178 4863 
L 1178 0 
L 603 0 
L 603 4863 
z
" transform="scale(0.015625)"/>
      <path id="DejaVuSans-78" d="M 3513 3500 
L 2247 1797 
L 3578 0 
L 2900 0 
L 1881 1375 
L 863 0 
L 184 0 
L 1544 1831 
L 300 3500 
L 978 3500 
L 1906 2253 
L 2834 3500 
L 3513 3500 
z
" transform="scale(0.015625)"/>
     </defs>
     <use xlink:href="#DejaVuSans-69"/>
     <use xlink:href="#DejaVuSans-6e" x="27.783203"/>
     <use xlink:href="#DejaVuSans-74" x="91.162109"/>
     <use xlink:href="#DejaVuSans-65" x="130.371094"/>
     <use xlink:href="#DejaVuSans-72" x="191.894531"/>
     <use xlink:href="#DejaVuSans-61" x="233.007812"/>
     <use xlink:href="#DejaVuSans-63" x="294.287109"/>
     <use xlink:href="#DejaVuSans-74" x="349.267578"/>
     <use xlink:href="#DejaVuSans-69" x="388.476562"/>
     <use xlink:href="#DejaVuSans-76" x="416.259766"/>
     <use xlink:href="#DejaVuSans-65" x="475.439453"/>
     <use xlink:href="#DejaVuSans-2d" x="536.962891"/>
     <use xlink:href="#DejaVuSans-63" x="573.046875"/>
     <use xlink:href="#DejaVuSans-6f" x="628.027344"/>
     <use xlink:href="#DejaVuSans-6d" x="689.208984"/>
     <use xlink:href="#DejaVuSans-70" x="786.621094"/>
     <use xlink:href="#DejaVuSans-6c" x="850.097656"/>
     <use xlink:href="#DejaVuSans-65" x="877.880859"/>
     <use xlink:href="#DejaVuSans-78" x="937.654297"/>
     <use xlink:href="#DejaVuSans-2d" x="996.833984"/>
     <use xlink:href="#DejaVuSans-38" x="1032.917969"/>
    </g>
   </g>
   <g id="legend_1">
    <g id="patch_7">
     <path d="M 325.846563 166.897 
L 407.72 166.897 
Q 409.72 166.897 409.72 164.897 
L 409.72 48.472 
Q 409.72 46.472 407.72 46.472 
L 325.846563 46.472 
Q 323.846563 46.472 323.846563 48.472 
L 323.846563 164.897 
Q 323.846563 166.897 325.846563 166.897 
z
" style="fill: #ffffff; opacity: 0.8; stroke: #cccccc; stroke-linejoin: miter"/>
    </g>
    <g id="patch_8">
     <path d="M 327.846563 58.070438 
L 347.846563 58.070438 
L 347.846563 51.070438 
L 327.846563 51.070438 
z
" style="fill: #0000ff"/>
    </g>
    <g id="text_15">
     <!-- typeIndex -->
     <g transform="translate(355.846563 58.070438)scale(0.1 -0.1)">
      <defs>
       <path id="DejaVuSans-79" d="M 2059 -325 
Q 1816 -950 1584 -1140 
Q 1353 -1331 966 -1331 
L 506 -1331 
L 506 -850 
L 844 -850 
Q 1081 -850 1212 -737 
Q 1344 -625 1503 -206 
L 1606 56 
L 191 3500 
L 800 3500 
L 1894 763 
L 2988 3500 
L 3597 3500 
L 2059 -325 
z
" transform="scale(0.015625)"/>
       <path id="DejaVuSans-49" d="M 628 4666 
L 1259 4666 
L 1259 0 
L 628 0 
L 628 4666 
z
" transform="scale(0.015625)"/>
       <path id="DejaVuSans-64" d="M 2906 2969 
L 2906 4863 
L 3481 4863 
L 3481 0 
L 2906 0 
L 2906 525 
Q 2725 213 2448 61 
Q 2172 -91 1784 -91 
Q 1150 -91 751 415 
Q 353 922 353 1747 
Q 353 2572 751 3078 
Q 1150 3584 1784 3584 
Q 2172 3584 2448 3432 
Q 2725 3281 2906 2969 
z
M 947 1747 
Q 947 1113 1208 752 
Q 1469 391 1925 391 
Q 2381 391 2643 752 
Q 2906 1113 2906 1747 
Q 2906 2381 2643 2742 
Q 2381 3103 1925 3103 
Q 1469 3103 1208 2742 
Q 947 2381 947 1747 
z
" transform="scale(0.015625)"/>
      </defs>
      <use xlink:href="#DejaVuSans-74"/>
      <use xlink:href="#DejaVuSans-79" x="39.208984"/>
      <use xlink:href="#DejaVuSans-70" x="98.388672"/>
      <use xlink:href="#DejaVuSans-65" x="161.865234"/>
      <use xlink:href="#DejaVuSans-49" x="223.388672"/>
      <use xlink:href="#DejaVuSans-6e" x="252.880859"/>
      <use xlink:href="#DejaVuSans-64" x="316.259766"/>
      <use xlink:href="#DejaVuSans-65" x="379.736328"/>
      <use xlink:href="#DejaVuSans-78" x="439.509766"/>
     </g>
    </g>
    <g id="patch_9">
     <path d="M 327.846563 72.748563 
L 347.846563 72.748563 
L 347.846563 65.748563 
L 327.846563 65.748563 
z
" style="fill: #008000"/>
    </g>
    <g id="text_16">
     <!-- sameAs -->
     <g transform="translate(355.846563 72.748563)scale(0.1 -0.1)">
      <defs>
       <path id="DejaVuSans-73" d="M 2834 3397 
L 2834 2853 
Q 2591 2978 2328 3040 
Q 2066 3103 1784 3103 
Q 1356 3103 1142 2972 
Q 928 2841 928 2578 
Q 928 2378 1081 2264 
Q 1234 2150 1697 2047 
L 1894 2003 
Q 2506 1872 2764 1633 
Q 3022 1394 3022 966 
Q 3022 478 2636 193 
Q 2250 -91 1575 -91 
Q 1294 -91 989 -36 
Q 684 19 347 128 
L 347 722 
Q 666 556 975 473 
Q 1284 391 1588 391 
Q 1994 391 2212 530 
Q 2431 669 2431 922 
Q 2431 1156 2273 1281 
Q 2116 1406 1581 1522 
L 1381 1569 
Q 847 1681 609 1914 
Q 372 2147 372 2553 
Q 372 3047 722 3315 
Q 1072 3584 1716 3584 
Q 2034 3584 2315 3537 
Q 2597 3491 2834 3397 
z
" transform="scale(0.015625)"/>
       <path id="DejaVuSans-41" d="M 2188 4044 
L 1331 1722 
L 3047 1722 
L 2188 4044 
z
M 1831 4666 
L 2547 4666 
L 4325 0 
L 3669 0 
L 3244 1197 
L 1141 1197 
L 716 0 
L 50 0 
L 1831 4666 
z
" transform="scale(0.015625)"/>
      </defs>
      <use xlink:href="#DejaVuSans-73"/>
      <use xlink:href="#DejaVuSans-61" x="52.099609"/>
      <use xlink:href="#DejaVuSans-6d" x="113.378906"/>
      <use xlink:href="#DejaVuSans-65" x="210.791016"/>
      <use xlink:href="#DejaVuSans-41" x="272.314453"/>
      <use xlink:href="#DejaVuSans-73" x="340.722656"/>
     </g>
    </g>
    <g id="patch_10">
     <path d="M 327.846563 87.426688 
L 347.846563 87.426688 
L 347.846563 80.426688 
L 327.846563 80.426688 
z
" style="fill: #ff0000"/>
    </g>
    <g id="text_17">
     <!-- seeAlso -->
     <g transform="translate(355.846563 87.426688)scale(0.1 -0.1)">
      <use xlink:href="#DejaVuSans-73"/>
      <use xlink:href="#DejaVuSans-65" x="52.099609"/>
      <use xlink:href="#DejaVuSans-65" x="113.623047"/>
      <use xlink:href="#DejaVuSans-41" x="175.146484"/>
      <use xlink:href="#DejaVuSans-6c" x="243.554688"/>
      <use xlink:href="#DejaVuSans-73" x="271.337891"/>
      <use xlink:href="#DejaVuSans-6f" x="323.4375"/>
     </g>
    </g>
    <g id="patch_11">
     <path d="M 327.846563 102.104813 
L 347.846563 102.104813 
L 347.846563 95.104813 
L 327.846563 95.104813 
z
" style="fill: #800080"/>
    </g>
    <g id="text_18">
     <!-- storage -->
     <g transform="translate(355.846563 102.104813)scale(0.1 -0.1)">
      <defs>
       <path id="DejaVuSans-67" d="M 2906 1791 
Q 2906 2416 2648 2759 
Q 2391 3103 1925 3103 
Q 1463 3103 1205 2759 
Q 947 2416 947 1791 
Q 947 1169 1205 825 
Q 1463 481 1925 481 
Q 2391 481 2648 825 
Q 2906 1169 2906 1791 
z
M 3481 434 
Q 3481 -459 3084 -895 
Q 2688 -1331 1869 -1331 
Q 1566 -1331 1297 -1286 
Q 1028 -1241 775 -1147 
L 775 -588 
Q 1028 -725 1275 -790 
Q 1522 -856 1778 -856 
Q 2344 -856 2625 -561 
Q 2906 -266 2906 331 
L 2906 616 
Q 2728 306 2450 153 
Q 2172 0 1784 0 
Q 1141 0 747 490 
Q 353 981 353 1791 
Q 353 2603 747 3093 
Q 1141 3584 1784 3584 
Q 2172 3584 2450 3431 
Q 2728 3278 2906 2969 
L 2906 3500 
L 3481 3500 
L 3481 434 
z
" transform="scale(0.015625)"/>
      </defs>
      <use xlink:href="#DejaVuSans-73"/>
      <use xlink:href="#DejaVuSans-74" x="52.099609"/>
      <use xlink:href="#DejaVuSans-6f" x="91.308594"/>
      <use xlink:href="#DejaVuSans-72" x="152.490234"/>
      <use xlink:href="#DejaVuSans-61" x="193.603516"/>
      <use xlink:href="#DejaVuSans-67" x="254.882812"/>
      <use xlink:href="#DejaVuSans-65" x="318.359375"/>
     </g>
    </g>
    <g id="patch_12">
     <path d="M 327.846563 116.782938 
L 347.846563 116.782938 
L 347.846563 109.782938 
L 327.846563 109.782938 
z
" style="fill: #a52a2a"/>
    </g>
    <g id="text_19">
     <!-- isTopicOf -->
     <g transform="translate(355.846563 116.782938)scale(0.1 -0.1)">
      <defs>
       <path id="DejaVuSans-54" d="M -19 4666 
L 3928 4666 
L 3928 4134 
L 2272 4134 
L 2272 0 
L 1638 0 
L 1638 4134 
L -19 4134 
L -19 4666 
z
" transform="scale(0.015625)"/>
       <path id="DejaVuSans-4f" d="M 2522 4238 
Q 1834 4238 1429 3725 
Q 1025 3213 1025 2328 
Q 1025 1447 1429 934 
Q 1834 422 2522 422 
Q 3209 422 3611 934 
Q 4013 1447 4013 2328 
Q 4013 3213 3611 3725 
Q 3209 4238 2522 4238 
z
M 2522 4750 
Q 3503 4750 4090 4092 
Q 4678 3434 4678 2328 
Q 4678 1225 4090 567 
Q 3503 -91 2522 -91 
Q 1538 -91 948 565 
Q 359 1222 359 2328 
Q 359 3434 948 4092 
Q 1538 4750 2522 4750 
z
" transform="scale(0.015625)"/>
       <path id="DejaVuSans-66" d="M 2375 4863 
L 2375 4384 
L 1825 4384 
Q 1516 4384 1395 4259 
Q 1275 4134 1275 3809 
L 1275 3500 
L 2222 3500 
L 2222 3053 
L 1275 3053 
L 1275 0 
L 697 0 
L 697 3053 
L 147 3053 
L 147 3500 
L 697 3500 
L 697 3744 
Q 697 4328 969 4595 
Q 1241 4863 1831 4863 
L 2375 4863 
z
" transform="scale(0.015625)"/>
      </defs>
      <use xlink:href="#DejaVuSans-69"/>
      <use xlink:href="#DejaVuSans-73" x="27.783203"/>
      <use xlink:href="#DejaVuSans-54" x="79.882812"/>
      <use xlink:href="#DejaVuSans-6f" x="123.966797"/>
      <use xlink:href="#DejaVuSans-70" x="185.148438"/>
      <use xlink:href="#DejaVuSans-69" x="248.625"/>
      <use xlink:href="#DejaVuSans-63" x="276.408203"/>
      <use xlink:href="#DejaVuSans-4f" x="331.388672"/>
      <use xlink:href="#DejaVuSans-66" x="410.099609"/>
     </g>
    </g>
    <g id="patch_13">
     <path d="M 327.846563 131.461063 
L 347.846563 131.461063 
L 347.846563 124.461063 
L 327.846563 124.461063 
z
" style="fill: #ffc0cb"/>
    </g>
    <g id="text_20">
     <!-- contains -->
     <g transform="translate(355.846563 131.461063)scale(0.1 -0.1)">
      <use xlink:href="#DejaVuSans-63"/>
      <use xlink:href="#DejaVuSans-6f" x="54.980469"/>
      <use xlink:href="#DejaVuSans-6e" x="116.162109"/>
      <use xlink:href="#DejaVuSans-74" x="179.541016"/>
      <use xlink:href="#DejaVuSans-61" x="218.75"/>
      <use xlink:href="#DejaVuSans-69" x="280.029297"/>
      <use xlink:href="#DejaVuSans-6e" x="307.8125"/>
      <use xlink:href="#DejaVuSans-73" x="371.191406"/>
     </g>
    </g>
    <g id="patch_14">
     <path d="M 327.846563 146.139188 
L 347.846563 146.139188 
L 347.846563 139.139188 
L 327.846563 139.139188 
z
" style="fill: #808080"/>
    </g>
    <g id="text_21">
     <!-- cMatch -->
     <g transform="translate(355.846563 146.139188)scale(0.1 -0.1)">
      <defs>
       <path id="DejaVuSans-4d" d="M 628 4666 
L 1569 4666 
L 2759 1491 
L 3956 4666 
L 4897 4666 
L 4897 0 
L 4281 0 
L 4281 4097 
L 3078 897 
L 2444 897 
L 1241 4097 
L 1241 0 
L 628 0 
L 628 4666 
z
" transform="scale(0.015625)"/>
       <path id="DejaVuSans-68" d="M 3513 2113 
L 3513 0 
L 2938 0 
L 2938 2094 
Q 2938 2591 2744 2837 
Q 2550 3084 2163 3084 
Q 1697 3084 1428 2787 
Q 1159 2491 1159 1978 
L 1159 0 
L 581 0 
L 581 4863 
L 1159 4863 
L 1159 2956 
Q 1366 3272 1645 3428 
Q 1925 3584 2291 3584 
Q 2894 3584 3203 3211 
Q 3513 2838 3513 2113 
z
" transform="scale(0.015625)"/>
      </defs>
      <use xlink:href="#DejaVuSans-63"/>
      <use xlink:href="#DejaVuSans-4d" x="54.980469"/>
      <use xlink:href="#DejaVuSans-61" x="141.259766"/>
      <use xlink:href="#DejaVuSans-74" x="202.539062"/>
      <use xlink:href="#DejaVuSans-63" x="241.748047"/>
      <use xlink:href="#DejaVuSans-68" x="296.728516"/>
     </g>
    </g>
    <g id="patch_15">
     <path d="M 327.846563 160.817313 
L 347.846563 160.817313 
L 347.846563 153.817313 
L 327.846563 153.817313 
z
" style="fill: #00ff00"/>
    </g>
    <g id="text_22">
     <!-- SeedURL -->
     <g transform="translate(355.846563 160.817313)scale(0.1 -0.1)">
      <defs>
       <path id="DejaVuSans-53" d="M 3425 4513 
L 3425 3897 
Q 3066 4069 2747 4153 
Q 2428 4238 2131 4238 
Q 1616 4238 1336 4038 
Q 1056 3838 1056 3469 
Q 1056 3159 1242 3001 
Q 1428 2844 1947 2747 
L 2328 2669 
Q 3034 2534 3370 2195 
Q 3706 1856 3706 1288 
Q 3706 609 3251 259 
Q 2797 -91 1919 -91 
Q 1588 -91 1214 -16 
Q 841 59 441 206 
L 441 856 
Q 825 641 1194 531 
Q 1563 422 1919 422 
Q 2459 422 2753 634 
Q 3047 847 3047 1241 
Q 3047 1584 2836 1778 
Q 2625 1972 2144 2069 
L 1759 2144 
Q 1053 2284 737 2584 
Q 422 2884 422 3419 
Q 422 4038 858 4394 
Q 1294 4750 2059 4750 
Q 2388 4750 2728 4690 
Q 3069 4631 3425 4513 
z
" transform="scale(0.015625)"/>
       <path id="DejaVuSans-55" d="M 556 4666 
L 1191 4666 
L 1191 1831 
Q 1191 1081 1462 751 
Q 1734 422 2344 422 
Q 2950 422 3222 751 
Q 3494 1081 3494 1831 
L 3494 4666 
L 4128 4666 
L 4128 1753 
Q 4128 841 3676 375 
Q 3225 -91 2344 -91 
Q 1459 -91 1007 375 
Q 556 841 556 1753 
L 556 4666 
z
" transform="scale(0.015625)"/>
       <path id="DejaVuSans-52" d="M 2841 2188 
Q 3044 2119 3236 1894 
Q 3428 1669 3622 1275 
L 4263 0 
L 3584 0 
L 2988 1197 
Q 2756 1666 2539 1819 
Q 2322 1972 1947 1972 
L 1259 1972 
L 1259 0 
L 628 0 
L 628 4666 
L 2053 4666 
Q 2853 4666 3247 4331 
Q 3641 3997 3641 3322 
Q 3641 2881 3436 2590 
Q 3231 2300 2841 2188 
z
M 1259 4147 
L 1259 2491 
L 2053 2491 
Q 2509 2491 2742 2702 
Q 2975 2913 2975 3322 
Q 2975 3731 2742 3939 
Q 2509 4147 2053 4147 
L 1259 4147 
z
" transform="scale(0.015625)"/>
       <path id="DejaVuSans-4c" d="M 628 4666 
L 1259 4666 
L 1259 531 
L 3531 531 
L 3531 0 
L 628 0 
L 628 4666 
z
" transform="scale(0.015625)"/>
      </defs>
      <use xlink:href="#DejaVuSans-53"/>
      <use xlink:href="#DejaVuSans-65" x="63.476562"/>
      <use xlink:href="#DejaVuSans-65" x="125"/>
      <use xlink:href="#DejaVuSans-64" x="186.523438"/>
      <use xlink:href="#DejaVuSans-55" x="250"/>
      <use xlink:href="#DejaVuSans-52" x="323.193359"/>
      <use xlink:href="#DejaVuSans-4c" x="392.675781"/>
     </g>
    </g>
   </g>
  </g>
 </g>
 <defs>
  <clipPath id="p4478ce1e31">
   <rect x="57.6" y="41.472" width="357.12" height="266.112"/>
  </clipPath>
 </defs>
</svg>
